<svg xmlns="http://www.w3.org/2000/svg" viewBox="0 0 400 300" fill="none">
  <defs>
    <linearGradient id="envBg2" x1="0" y1="0" x2="0" y2="1">
      <stop offset="0%" stop-color="#ecfccb"/>
      <stop offset="50%" stop-color="#86efac"/>
      <stop offset="100%" stop-color="#16a34a"/>
    </linearGradient>
    <radialGradient id="plantGlow" cx="50%" cy="70%" r="45%">
      <stop offset="0%" stop-color="#bbf7d0" stop-opacity="0.9"/>
      <stop offset="100%" stop-color="#16a34a" stop-opacity="0"/>
    </radialGradient>
  </defs>
  <rect width="400" height="300" fill="url(#envBg2)"/>
  <ellipse cx="200" cy="260" rx="100" ry="25" fill="url(#plantGlow)"/>
  <!-- soil mound -->
  <ellipse cx="200" cy="248" rx="55" ry="14" fill="#78350f" opacity="0.45"/>
  <!-- stem -->
  <path d="M200 248 Q198 190 200 130 Q202 80 200 45" stroke="#15803d" stroke-width="7" fill="none" stroke-linecap="round"/>
  <!-- leaves -->
  <ellipse cx="168" cy="155" rx="32" ry="16" fill="#22c55e" transform="rotate(-35 168 155)"/>
  <ellipse cx="232" cy="125" rx="36" ry="18" fill="#16a34a" transform="rotate(30 232 125)"/>
  <ellipse cx="175" cy="100" rx="26" ry="13" fill="#4ade80" transform="rotate(-25 175 100)"/>
  <ellipse cx="225" cy="75" rx="22" ry="11" fill="#22c55e" transform="rotate(20 225 75)"/>
  <ellipse cx="200" cy="48" rx="18" ry="12" fill="#86efac"/>
  <!-- dewdrops -->
  <circle cx="215" cy="90" r="4" fill="#bae6fd" opacity="0.8"/>
  <circle cx="178" cy="130" r="3" fill="#bae6fd" opacity="0.7"/>
</svg>
