<svg xmlns="http://www.w3.org/2000/svg" viewBox="0 0 400 300" fill="none">
  <defs>
    <linearGradient id="eaBg" x1="0" y1="0" x2="1" y2="1">
      <stop offset="0%" stop-color="#fef9c3"/>
      <stop offset="100%" stop-color="#fef3c7"/>
    </linearGradient>
  </defs>
  <rect width="400" height="300" fill="url(#eaBg)"/>
  <!-- chalkboard -->
  <rect x="40" y="30" width="140" height="90" rx="6" fill="#374151"/>
  <line x1="55" y1="55" x2="165" y2="55" stroke="#6b7280" stroke-width="3"/>
  <line x1="55" y1="75" x2="140" y2="75" stroke="#6b7280" stroke-width="2"/>
  <line x1="55" y1="95" x2="120" y2="95" stroke="#6b7280" stroke-width="2"/>
  <!-- desk -->
  <rect x="100" y="195" width="220" height="14" rx="4" fill="#92400e"/>
  <rect x="115" y="209" width="10" height="55" fill="#78350f"/>
  <rect x="295" y="209" width="10" height="55" fill="#78350f"/>
  <!-- teacher -->
  <circle cx="155" cy="130" r="36" fill="#d4a574"/>
  <path d="M125 118 Q155 82 185 118" fill="#2d1810"/>
  <rect x="128" y="166" width="54" height="35" rx="8" fill="#16a34a"/>
  <rect x="112" y="172" width="18" height="45" rx="6" fill="#d4a574" transform="rotate(15 121 172)"/>
  <!-- student -->
  <circle cx="265" cy="145" r="32" fill="#fcd9b6"/>
  <path d="M245 136 Q265 114 285 136" fill="#5c3d2e"/>
  <rect x="248" y="177" width="34" height="22" rx="6" fill="#7c3aed"/>
  <!-- open book -->
  <path d="M230 200 L252 190 L252 212 L230 222 Z" fill="#fff" stroke="#d1d5db"/>
  <path d="M252 190 L274 200 L274 222 L252 212 Z" fill="#f3f4f6" stroke="#d1d5db"/>
  <!-- book stack -->
  <rect x="285" y="175" width="45" height="9" rx="2" fill="#1e3a8a"/>
  <rect x="290" y="164" width="38" height="9" rx="2" fill="#4da6a9"/>
</svg>
