<svg xmlns="http://www.w3.org/2000/svg" viewBox="0 0 400 300" fill="none">
  <defs>
    <linearGradient id="forestBg" x1="0" y1="0" x2="0" y2="1">
      <stop offset="0%" stop-color="#bbf7d0"/>
      <stop offset="60%" stop-color="#4ade80"/>
      <stop offset="100%" stop-color="#166534"/>
    </linearGradient>
    <radialGradient id="sunGlow" cx="80%" cy="15%" r="30%">
      <stop offset="0%" stop-color="#fde68a" stop-opacity="0.9"/>
      <stop offset="100%" stop-color="#fde68a" stop-opacity="0"/>
    </radialGradient>
  </defs>
  <rect width="400" height="300" fill="url(#forestBg)"/>
  <rect width="400" height="300" fill="url(#sunGlow)"/>
  <!-- path -->
  <path d="M200 275 Q185 210 195 155 Q205 95 215 45" stroke="#c4a574" stroke-width="22" fill="none" stroke-linecap="round" opacity="0.75"/>
  <path d="M200 275 Q185 210 195 155 Q205 95 215 45" stroke="#d4b896" stroke-width="8" fill="none" stroke-linecap="round" opacity="0.5"/>
  <!-- trees -->
  <rect x="45" y="130" width="14" height="70" fill="#78350f"/>
  <polygon points="52,85 20,145 84,145" fill="#15803d"/>
  <rect x="320" y="110" width="16" height="90" fill="#78350f"/>
  <polygon points="328,55 290,125 366,125" fill="#166534"/>
  <rect x="110" y="165" width="10" height="50" fill="#78350f"/>
  <polygon points="115,135 95,170 135,170" fill="#22c55e"/>
  <!-- person -->
  <circle cx="218" cy="78" r="14" fill="#fcd9b6"/>
  <path d="M206 72 Q218 60 230 72" fill="#5c3d2e"/>
  <rect x="210" y="92" width="16" height="28" rx="4" fill="#1e3a8a"/>
  <rect x="206" y="120" width="8" height="22" rx="3" fill="#374151"/>
  <rect x="222" y="120" width="8" height="22" rx="3" fill="#374151"/>
  <!-- sun -->
  <circle cx="330" cy="45" r="28" fill="#fbbf24" opacity="0.85"/>
</svg>
