<svg xmlns="http://www.w3.org/2000/svg" viewBox="0 0 900 420" fill="none">
  <defs>
    <linearGradient id="heroSky" x1="0" y1="0" x2="0" y2="1">
      <stop offset="0%" stop-color="#5ec4c7"/>
      <stop offset="100%" stop-color="#4da6a9"/>
    </linearGradient>
    <filter id="softShadow" x="-20%" y="-20%" width="140%" height="140%">
      <feDropShadow dx="0" dy="4" stdDeviation="6" flood-color="#000" flood-opacity="0.12"/>
    </filter>
  </defs>
  <rect width="900" height="420" fill="url(#heroSky)"/>
  <text x="130" y="75" font-family="Georgia, serif" font-size="26" fill="rgba(255,255,255,0.14)" transform="rotate(-6 130 75)">safe work</text>
  <text x="620" y="90" font-family="Georgia, serif" font-size="30" fill="rgba(255,255,255,0.12)" transform="rotate(4 620 90)">women</text>
  <ellipse cx="450" cy="395" rx="380" ry="28" fill="rgba(0,0,0,0.07)"/>
  <!-- Girl -->
  <g filter="url(#softShadow)" transform="translate(175, 130)">
    <ellipse cx="58" cy="210" rx="48" ry="10" fill="rgba(0,0,0,0.1)"/>
    <rect x="38" y="142" width="42" height="62" rx="10" fill="#f59e0b"/>
    <rect x="44" y="204" width="14" height="42" rx="5" fill="#1e3a5f"/>
    <rect x="60" y="204" width="14" height="42" rx="5" fill="#1e3a5f"/>
    <circle cx="58" cy="88" r="34" fill="#fcd9b6"/>
    <path d="M28 76 Q58 38 88 76 Q84 108 58 104 Q32 108 28 76" fill="#5c3d2e"/>
    <ellipse cx="48" cy="92" rx="4" ry="5" fill="#2d1810"/>
    <ellipse cx="68" cy="92" rx="4" ry="5" fill="#2d1810"/>
    <path d="M50 104 Q58 112 66 104" stroke="#c68642" stroke-width="2" fill="none" stroke-linecap="round"/>
    <rect x="18" y="148" width="18" height="48" rx="8" fill="#fcd9b6" transform="rotate(18 27 148)"/>
    <rect x="80" y="148" width="18" height="48" rx="8" fill="#fcd9b6" transform="rotate(-12 89 148)"/>
  </g>
  <!-- Woman center -->
  <g filter="url(#softShadow)" transform="translate(365, 105)">
    <ellipse cx="88" cy="230" rx="58" ry="12" fill="rgba(0,0,0,0.1)"/>
    <path d="M52 158 Q88 142 124 158 L118 218 Q88 228 58 218 Z" fill="#7c3aed"/>
    <path d="M58 218 Q88 226 118 218" fill="#6d28d9"/>
    <rect x="70" y="218" width="16" height="52" rx="6" fill="#374151"/>
    <rect x="90" y="218" width="16" height="52" rx="6" fill="#374151"/>
    <circle cx="88" cy="92" r="38" fill="#e8b89a"/>
    <path d="M54 80 Q88 36 122 80 Q118 118 88 112 Q58 118 54 80" fill="#2d1810"/>
    <ellipse cx="74" cy="96" rx="4" ry="5" fill="#2d1810"/>
    <ellipse cx="102" cy="96" rx="4" ry="5" fill="#2d1810"/>
    <path d="M78 110 Q88 118 98 110" stroke="#c68642" stroke-width="2" fill="none" stroke-linecap="round"/>
    <rect x="38" y="158" width="20" height="52" rx="8" fill="#e8b89a" transform="rotate(22 48 158)"/>
    <rect x="118" y="158" width="20" height="52" rx="8" fill="#e8b89a" transform="rotate(-18 128 158)"/>
  </g>
  <!-- Doctor -->
  <g filter="url(#softShadow)" transform="translate(575, 115)">
    <ellipse cx="78" cy="218" rx="52" ry="11" fill="rgba(0,0,0,0.1)"/>
    <rect x="48" y="148" width="60" height="68" rx="8" fill="#ffffff"/>
    <rect x="48" y="148" width="60" height="22" rx="6" fill="#e0f2fe"/>
    <line x1="78" y1="170" x2="78" y2="210" stroke="#cbd5e1" stroke-width="1.5"/>
    <circle cx="62" cy="182" r="3.5" fill="#4da6a9"/>
    <circle cx="78" cy="182" r="3.5" fill="#ef4444"/>
    <path d="M52 205 Q78 196 104 205" stroke="#4da6a9" stroke-width="3" fill="none"/>
    <rect x="60" y="216" width="15" height="48" rx="5" fill="#1f2937"/>
    <rect x="81" y="216" width="15" height="48" rx="5" fill="#1f2937"/>
    <circle cx="78" cy="86" r="36" fill="#d4a574"/>
    <path d="M46 74 Q78 32 110 74 Q106 112 78 106 Q50 112 46 74" fill="#3d2314"/>
    <ellipse cx="66" cy="90" rx="4" ry="5" fill="#2d1810"/>
    <ellipse cx="90" cy="90" rx="4" ry="5" fill="#2d1810"/>
    <path d="M72 102 Q78 110 84 102" stroke="#c68642" stroke-width="2" fill="none" stroke-linecap="round"/>
    <path d="M58 132 Q52 152 62 168 Q72 178 85 168" stroke="#475569" stroke-width="2.5" fill="none" stroke-linecap="round"/>
    <circle cx="84" cy="170" r="6" fill="none" stroke="#475569" stroke-width="2.5"/>
  </g>
</svg>
