<svg xmlns="http://www.w3.org/2000/svg" viewBox="0 0 40 40" fill="none">
  <path d="M20 6c-5 0-8 2.5-8 6v2.5c0 3.5 3.5 6 8 6s8-2.5 8-6V12c0-3.5-3-6-8-6z" stroke="#111827" stroke-width="2" stroke-linecap="round"/>
  <path d="M12 21v4.5c0 4.5 3.5 8.5 8 8.5s8-4 8-8.5V21" stroke="#111827" stroke-width="2" stroke-linecap="round"/>
  <path d="M7 23c-2.5 1.2-4 3.5-4 6 0 2.2 2 3.5 4.5 3.5" stroke="#111827" stroke-width="2" stroke-linecap="round"/>
  <path d="M33 23c2.5 1.2 4 3.5 4 6 0 2.2-2 3.5-4.5 3.5" stroke="#111827" stroke-width="2" stroke-linecap="round"/>
  <path d="M20 30v6" stroke="#111827" stroke-width="2" stroke-linecap="round"/>
  <path d="M15 36h10" stroke="#111827" stroke-width="2" stroke-linecap="round"/>
</svg>
