<svg xmlns="http://www.w3.org/2000/svg" viewBox="0 0 1200 400" fill="none">
  <defs>
    <linearGradient id="tyWall" x1="0" y1="0" x2="0" y2="1">
      <stop offset="0%" stop-color="#fde68a"/>
      <stop offset="100%" stop-color="#fef3c7"/>
    </linearGradient>
  </defs>
  <rect width="1200" height="400" fill="url(#tyWall)"/>
  <!-- blackboard -->
  <rect x="60" y="35" width="220" height="130" rx="8" fill="#374151"/>
  <line x1="85" y1="70" x2="255" y2="70" stroke="#6b7280" stroke-width="4"/>
  <line x1="85" y1="100" x2="220" y2="100" stroke="#6b7280" stroke-width="2.5"/>
  <line x1="85" y1="125" x2="200" y2="125" stroke="#6b7280" stroke-width="2"/>
  <!-- window -->
  <rect x="900" y="40" width="120" height="90" rx="4" fill="#bae6fd" stroke="#94a3b8" stroke-width="3"/>
  <line x1="960" y1="40" x2="960" y2="130" stroke="#94a3b8" stroke-width="2"/>
  <line x1="900" y1="85" x2="1020" y2="85" stroke="#94a3b8" stroke-width="2"/>
  <!-- floor -->
  <rect y="310" width="1200" height="90" fill="#d4a574" opacity="0.25"/>
  <!-- desk -->
  <rect x="380" y="295" width="440" height="16" rx="5" fill="#92400e"/>
  <!-- girl 1 -->
  <g transform="translate(430, 155)">
    <circle cx="65" cy="65" r="48" fill="#fcd9b6"/>
    <path d="M22 50 Q65 5 108 50 Q102 100 65 92 Q28 100 22 50" fill="#5c3d2e"/>
    <ellipse cx="48" cy="70" rx="5" ry="6" fill="#2d1810"/>
    <ellipse cx="82" cy="70" rx="5" ry="6" fill="#2d1810"/>
    <path d="M52 88 Q65 102 78 88" stroke="#c68642" stroke-width="2.5" fill="none" stroke-linecap="round"/>
    <rect x="38" y="113" width="54" height="68" rx="10" fill="#ec4899"/>
    <rect x="46" y="181" width="16" height="52" rx="5" fill="#1f2937"/>
    <rect x="68" y="181" width="16" height="52" rx="5" fill="#1f2937"/>
  </g>
  <!-- girl 2 -->
  <g transform="translate(640, 150)">
    <circle cx="68" cy="68" r="50" fill="#e8b89a"/>
    <path d="M22 52 Q68 2 114 52 Q108 104 68 96 Q28 104 22 52" fill="#2d1810"/>
    <ellipse cx="50" cy="74" rx="5" ry="6" fill="#2d1810"/>
    <ellipse cx="86" cy="74" rx="5" ry="6" fill="#2d1810"/>
    <path d="M55 92 Q68 108 81 92" stroke="#c68642" stroke-width="2.5" fill="none" stroke-linecap="round"/>
    <rect x="40" y="118" width="56" height="70" rx="10" fill="#3b82f6"/>
    <rect x="48" y="188" width="17" height="54" rx="5" fill="#374151"/>
    <rect x="71" y="188" width="17" height="54" rx="5" fill="#374151"/>
    <rect x="105" y="210" width="38" height="28" rx="4" fill="#fff" stroke="#d1d5db" stroke-width="1.5"/>
  </g>
</svg>
