<svg xmlns="http://www.w3.org/2000/svg" viewBox="0 0 1000 400" fill="none">
  <defs>
    <linearGradient id="teamSky" x1="0" y1="0" x2="0" y2="1">
      <stop offset="0%" stop-color="#7dd3fc"/>
      <stop offset="40%" stop-color="#bae6fd"/>
      <stop offset="100%" stop-color="#bbf7d0"/>
    </linearGradient>
  </defs>
  <rect width="1000" height="400" rx="12" fill="url(#teamSky)"/>
  <rect y="290" width="1000" height="110" fill="#86efac" opacity="0.45"/>
  <!-- trees -->
  <rect x="70" y="210" width="14" height="80" fill="#78350f"/>
  <circle cx="77" cy="190" r="38" fill="#22c55e"/>
  <rect x="900" y="195" width="16" height="95" fill="#78350f"/>
  <circle cx="908" cy="170" r="42" fill="#16a34a"/>
  <!-- Volunteer 1 -->
  <g transform="translate(160, 115)">
    <circle cx="52" cy="58" r="38" fill="#c68642"/>
    <path d="M18 44 Q52 6 86 44 Q82 84 52 78 Q22 84 18 44" fill="#1a1a1a"/>
    <rect x="30" y="96" width="44" height="78" rx="10" fill="#1e40af"/>
    <rect x="40" y="90" width="28" height="10" rx="3" fill="#fff" opacity="0.85"/>
    <rect x="44" y="92" width="20" height="5" rx="1" fill="#fbbf24"/>
    <rect x="36" y="174" width="14" height="62" rx="5" fill="#1f2937"/>
    <rect x="54" y="174" width="14" height="62" rx="5" fill="#1f2937"/>
  </g>
  <!-- Volunteer 2 -->
  <g transform="translate(340, 105)">
    <circle cx="54" cy="60" r="40" fill="#d4a574"/>
    <path d="M18 46 Q54 4 90 46 Q86 88 54 82 Q22 88 18 46" fill="#2d1810"/>
    <rect x="30" y="100" width="48" height="80" rx="10" fill="#2563eb"/>
    <rect x="42" y="94" width="28" height="10" rx="3" fill="#fff" opacity="0.85"/>
    <rect x="46" y="96" width="20" height="5" rx="1" fill="#fbbf24"/>
    <rect x="36" y="180" width="15" height="64" rx="5" fill="#374151"/>
    <rect x="57" y="180" width="15" height="64" rx="5" fill="#374151"/>
  </g>
  <!-- Volunteer 3 -->
  <g transform="translate(520, 110)">
    <circle cx="52" cy="58" r="38" fill="#8b6914"/>
    <path d="M18 44 Q52 6 86 44 Q82 84 52 78 Q22 84 18 44" fill="#1a1a1a"/>
    <rect x="30" y="96" width="44" height="78" rx="10" fill="#1d4ed8"/>
    <rect x="40" y="90" width="28" height="10" rx="3" fill="#fff" opacity="0.85"/>
    <rect x="36" y="174" width="14" height="62" rx="5" fill="#1f2937"/>
    <rect x="54" y="174" width="14" height="62" rx="5" fill="#1f2937"/>
  </g>
  <!-- Volunteer 4 -->
  <g transform="translate(700, 118)">
    <circle cx="50" cy="56" r="36" fill="#e8b89a"/>
    <path d="M18 42 Q50 6 82 42 Q78 82 50 76 Q22 82 18 42" fill="#5c3d2e"/>
    <rect x="28" y="92" width="44" height="76" rx="10" fill="#1e3a8a"/>
    <rect x="38" y="86" width="26" height="10" rx="3" fill="#fff" opacity="0.85"/>
    <rect x="34" y="168" width="13" height="58" rx="5" fill="#374151"/>
    <rect x="53" y="168" width="13" height="58" rx="5" fill="#374151"/>
  </g>
</svg>
